<?xml version="1.0" standalone="no"?><?xml-stylesheet type="text/css" href="https://wps.processon.com/themes/default/wps/mind/icons/icons.css" ?><!DOCTYPE svg PUBLIC "-//W3C//DTD SVG 1.1//EN" "http://www.w3.org/Graphics/SVG/1.1/DTD/svg11.dtd"><svg xmlns="http://www.w3.org/2000/svg" xlink="http://www.w3.org/1999/xlink" id="mind-svg-view-con" version="1.1" width="1503px" height="752px" style="position: absolute; width: 1503px; height: 752px; transform-origin: 0px 0px;"><defs></defs><g id="svgbackgroundid"><defs></defs><rect x="0" y="0" width="1503" height="752" fill="#ffffff"></rect></g><g><defs><pattern patternUnits="userSpaceOnUse" id="pattern_mark_0" width="300" height="300"><text x="150" y="100" fill="rgb(235,235,235)" font-size="18" transform="rotate(-45, 150, 150)" style="dominant-baseline: middle; text-anchor: middle;"></text></pattern></defs><rect fill="url(#pattern_mark_0)" x="0" y="0" width="1503" height="752" id="rect_mark_0" pointer-events="none"></rect></g><g transform="translate(-9495.5, -9565.5)" id="sdjakdjak6"><defs></defs><g class="svg-topic-con" transform="translate(0.5,0.5)"><path part="right" sub="true" id="line_a0d5f4081bac7303" d="M 10000 9941.5 C 10000 9941.5 10010 9941.40625 10156.5 9941.40625" stroke="#484848" fill="none" stroke-width="2"></path><path part="left" sub="true" id="line_402161a29e30671a" d="M 10000 9941.5 C 10000 9941.5 9990 9736.0703125 9843.5 9736.0703125" stroke="#484848" fill="none" stroke-width="2"></path><path part="left" sub="true" id="line_f5a2bf7a991c1a38" d="M 10000 9941.5 C 10000 9941.5 9990 9915.28125 9843.5 9915.28125" stroke="#484848" fill="none" stroke-width="2"></path><path part="left" sub="true" id="line_62a8598c271a1788" d="M 10000 9941.5 C 10000 9941.5 9990 10018.28125 9843.5 10018.28125" stroke="#484848" fill="none" stroke-width="2"></path><path part="left" sub="true" id="line_01764e9f63d000b4" d="M 10000 9941.5 C 10000 9941.5 9990 10172.296875 9843.5 10172.296875" stroke="#484848" fill="none" stroke-width="2"></path></g><g class="svg-connection-con" transform="translate(0.5,0.5)"></g><g class="svg-freesums-con" transform="translate(0.5,0.5)"></g><g class="svg-freebos-con" transform="translate(0.5,0.5)"></g></g><g id="a0d5f4081bac7303"><rect x="661" y="357.265625" rx="10px" ry="10px" width="124" height="37" style="fill: #EEEEEE; stroke:none;stroke-width:0px;"></rect><g><text text-anchor="start" align="top" anchor="start" font-size="14px" font-weight="normal" fill="rgba(13, 13, 13, 0.898)" style="font-size:14px;font-family:微软雅黑;color:#0D0D0DE5;font-style:normal;text-align:left;font-weight:normal;"><tspan x="701" y="381"><tspan dx="0">证书流水线</tspan></tspan></text></g><g><g transform="translate(676, 369.546875) scale(0.015625)"><circle cx="512" cy="512" r="576" stroke="#ffffff" stroke-width="64" fill="#ffffff"></circle><path d="M1024 512c0 282.768-229.232 512-512 512C229.232 1024 0 794.768 0 512 0 229.232 229.232 0 512 0c282.768 0 512 229.232 512 512z m-249.104-137.648a31.984 31.984 0 1 0-45.792-44.704L439.456 626.208 278.896 461.808a32 32 0 0 0-45.792 44.72l183.456 187.84a32 32 0 0 0 45.792 0l312.544-320z" fill="rgb(0, 186, 74)"></path></g></g></g><g id="46e13935e62c8b42"><rect x="817" y="157.671875" rx="1px" ry="1px" width="106" height="27" style="fill: transparent; stroke:none;stroke-width:0px;"></rect><g><text text-anchor="start" align="top" anchor="start" font-size="14px" font-weight="400" fill="rgba(13, 13, 13, 0.898)" style="font-size:14px;font-family:微软雅黑;color:#0D0D0DE5;font-style:normal;text-align:left;font-weight:400;"><tspan x="855" y="176"><tspan dx="0">证书申请</tspan></tspan></text></g><g><g transform="translate(830, 164.953125) scale(0.015625)"><circle cx="512" cy="512" r="576" stroke="#ffffff" stroke-width="64" fill="#ffffff"></circle><path d="M1024 512c0 282.768-229.232 512-512 512C229.232 1024 0 794.768 0 512 0 229.232 229.232 0 512 0c282.768 0 512 229.232 512 512z m-249.104-137.648a31.984 31.984 0 1 0-45.792-44.704L439.456 626.208 278.896 461.808a32 32 0 0 0-45.792 44.72l183.456 187.84a32 32 0 0 0 45.792 0l312.544-320z" fill="rgb(0, 186, 74)"></path></g></g></g><g id="b7824834043bbb38"><rect x="955" y="30" rx="1px" ry="1px" width="108" height="27" style="fill: transparent; stroke:none;stroke-width:0px;"></rect><g><text text-anchor="start" align="top" anchor="start" font-size="14px" font-weight="400" fill="rgba(13, 13, 13, 0.898)" style="font-size:14px;font-family:微软雅黑;color:#0D0D0DE5;font-style:normal;text-align:left;font-weight:400;"><tspan x="967" y="48"><tspan dx="0">免费证书申请</tspan></tspan></text></g></g><g id="26b9492a7616fee1"><rect x="955" y="81.015625" rx="1px" ry="1px" width="304" height="27" style="fill: transparent; stroke:none;stroke-width:0px;"></rect><g><text text-anchor="start" align="top" anchor="start" font-size="14px" font-weight="400" fill="rgba(13, 13, 13, 0.898)" style="font-size:14px;font-family:微软雅黑;color:#0D0D0DE5;font-style:normal;text-align:left;font-weight:400;"><tspan x="967" y="99"><tspan dx="0">多域名，泛域名到一个证书上；支持证书下载</tspan></tspan></text></g></g><g id="700fc8508d0db44b"><rect x="955" y="132.03125" rx="1px" ry="1px" width="269" height="27" style="fill: transparent; stroke:none;stroke-width:0px;"></rect><g><text text-anchor="start" align="top" anchor="start" font-size="14px" font-weight="400" fill="rgba(13, 13, 13, 0.898)" style="font-size:14px;font-family:微软雅黑;color:#0D0D0DE5;font-style:normal;text-align:left;font-weight:400;"><tspan x="967" y="150"><tspan dx="0">PEM、DER、PFX、JKS等多种证书格式</tspan></tspan></text></g></g><g id="2ab2fd0ce04407d5"><rect x="955" y="183.046875" rx="1px" ry="1px" width="203" height="27" style="fill: transparent; stroke:none;stroke-width:0px;"></rect><g><text text-anchor="start" align="top" anchor="start" font-size="14px" font-weight="400" fill="rgba(13, 13, 13, 0.898)" style="font-size:14px;font-family:微软雅黑;color:#0D0D0DE5;font-style:normal;text-align:left;font-weight:400;"><tspan x="967" y="201"><tspan dx="0">支持RSA、ECC多种签名算法</tspan></tspan></text></g></g><g id="e6460d41b84b05da"><rect x="955" y="234.0625" rx="1px" ry="1px" width="518" height="27" style="fill: transparent; stroke:none;stroke-width:0px;"></rect><g><text text-anchor="start" align="top" anchor="start" font-size="14px" font-weight="400" fill="rgba(13, 13, 13, 0.898)" style="font-size:14px;font-family:微软雅黑;color:#0D0D0DE5;font-style:normal;text-align:left;font-weight:400;"><tspan x="993" y="252"><tspan dx="0">DNS、CNAME、HTTP多种方式校验，支持所有域名服务商，支持各种情况</tspan></tspan></text></g><g><g transform="translate(968, 241.34375) scale(0.015625)"><circle cx="512" cy="512" r="576" stroke="#ffffff" stroke-width="64" fill="#ffffff"></circle><path d="M1024 512c0 282.768-229.232 512-512 512C229.232 1024 0 794.768 0 512 0 229.232 229.232 0 512 0c282.768 0 512 229.232 512 512zM526.352 233.744a15.936 15.936 0 0 0-28.704 0l-80.672 163.36c-2.336 4.8-6.832 8-12.048 8.8l-180.4 26.24c-13.12 1.92-18.368 18.08-8.864 27.2l130.528 127.36c3.776 3.68 5.504 8.96 4.608 14.08L320 780.464c-2.24 13.12 11.472 23.04 23.216 16.96l161.36-84.96c4.656-2.4 10.24-2.4 14.88 0l161.36 84.96c11.744 6.08 25.456-3.84 23.216-16.96l-30.816-179.68a15.888 15.888 0 0 1 4.608-14.08l130.528-127.36c9.504-9.12 4.256-25.28-8.864-27.2l-180.4-26.24a15.984 15.984 0 0 1-12.048-8.8l-80.672-163.36z" fill="rgb(248, 87, 103)"></path></g></g></g><g id="82fecc0849207a06"><rect x="955" y="285.34375" rx="1px" ry="1px" width="148" height="27" style="fill: transparent; stroke:none;stroke-width:0px;"></rect><g><text text-anchor="start" align="top" anchor="start" font-size="14px" font-weight="400" fill="rgba(13, 13, 13, 0.898)" style="font-size:14px;font-family:微软雅黑;color:#0D0D0DE5;font-style:normal;text-align:left;font-weight:400;"><tspan x="993" y="304"><tspan dx="0">支持子域名托管</tspan></tspan></text></g><g><g transform="translate(968, 292.625) scale(0.015625)"><circle cx="512" cy="512" r="576" stroke="#ffffff" stroke-width="64" fill="#ffffff"></circle><path d="M1024 512c0 282.768-229.232 512-512 512C229.232 1024 0 794.768 0 512 0 229.232 229.232 0 512 0c282.768 0 512 229.232 512 512zM526.352 233.744a15.936 15.936 0 0 0-28.704 0l-80.672 163.36c-2.336 4.8-6.832 8-12.048 8.8l-180.4 26.24c-13.12 1.92-18.368 18.08-8.864 27.2l130.528 127.36c3.776 3.68 5.504 8.96 4.608 14.08L320 780.464c-2.24 13.12 11.472 23.04 23.216 16.96l161.36-84.96c4.656-2.4 10.24-2.4 14.88 0l161.36 84.96c11.744 6.08 25.456-3.84 23.216-16.96l-30.816-179.68a15.888 15.888 0 0 1 4.608-14.08l130.528-127.36c9.504-9.12 4.256-25.28-8.864-27.2l-180.4-26.24a15.984 15.984 0 0 1-12.048-8.8l-80.672-163.36z" fill="rgb(248, 87, 103)"></path></g></g></g><g id="eee917cc413a8855"><rect x="817" y="439.0625" rx="1px" ry="1px" width="106" height="27" style="fill: transparent; stroke:none;stroke-width:0px;"></rect><g><text text-anchor="start" align="top" anchor="start" font-size="14px" font-weight="400" fill="rgba(13, 13, 13, 0.898)" style="font-size:14px;font-family:微软雅黑;color:#0D0D0DE5;font-style:normal;text-align:left;font-weight:400;"><tspan x="855" y="457"><tspan dx="0">证书部署</tspan></tspan></text></g><g><g transform="translate(830, 446.34375) scale(0.015625)"><circle cx="512" cy="512" r="576" stroke="#ffffff" stroke-width="64" fill="#ffffff"></circle><path d="M1024 512c0 282.768-229.232 512-512 512C229.232 1024 0 794.768 0 512 0 229.232 229.232 0 512 0c282.768 0 512 229.232 512 512z m-249.104-137.648a31.984 31.984 0 1 0-45.792-44.704L439.456 626.208 278.896 461.808a32 32 0 0 0-45.792 44.72l183.456 187.84a32 32 0 0 0 45.792 0l312.544-320z" fill="rgb(0, 186, 74)"></path></g></g></g><g id="1cde76dd2d9c096f"><rect x="955" y="336.625" rx="1px" ry="1px" width="107" height="27" style="fill: transparent; stroke:none;stroke-width:0px;"></rect><g><text text-anchor="start" align="top" anchor="start" font-size="14px" font-weight="400" fill="rgba(13, 13, 13, 0.898)" style="font-size:14px;font-family:微软雅黑;color:#0D0D0DE5;font-style:normal;text-align:left;font-weight:400;"><tspan x="967" y="355"><tspan dx="0">70+部署插件</tspan></tspan></text></g></g><g id="60ea1ff0c1930715"><rect x="955" y="387.640625" rx="1px" ry="1px" width="106" height="27" style="fill: transparent; stroke:none;stroke-width:0px;"></rect><g><text text-anchor="start" align="top" anchor="start" font-size="14px" font-weight="400" fill="rgba(13, 13, 13, 0.898)" style="font-size:14px;font-family:微软雅黑;color:#0D0D0DE5;font-style:normal;text-align:left;font-weight:400;"><tspan x="993" y="406"><tspan dx="0">增量执行</tspan></tspan></text></g><g><g transform="translate(968, 394.921875) scale(0.015625)"><circle cx="512" cy="512" r="576" stroke="#ffffff" stroke-width="64" fill="#ffffff"></circle><path d="M1024 512c0 282.768-229.232 512-512 512C229.232 1024 0 794.768 0 512 0 229.232 229.232 0 512 0c282.768 0 512 229.232 512 512zM526.352 233.744a15.936 15.936 0 0 0-28.704 0l-80.672 163.36c-2.336 4.8-6.832 8-12.048 8.8l-180.4 26.24c-13.12 1.92-18.368 18.08-8.864 27.2l130.528 127.36c3.776 3.68 5.504 8.96 4.608 14.08L320 780.464c-2.24 13.12 11.472 23.04 23.216 16.96l161.36-84.96c4.656-2.4 10.24-2.4 14.88 0l161.36 84.96c11.744 6.08 25.456-3.84 23.216-16.96l-30.816-179.68a15.888 15.888 0 0 1 4.608-14.08l130.528-127.36c9.504-9.12 4.256-25.28-8.864-27.2l-180.4-26.24a15.984 15.984 0 0 1-12.048-8.8l-80.672-163.36z" fill="rgb(248, 87, 103)"></path></g></g></g><g id="a918b60520769ef0"><rect x="955" y="438.921875" rx="1px" ry="1px" width="162" height="27" style="fill: transparent; stroke:none;stroke-width:0px;"></rect><g><text text-anchor="start" align="top" anchor="start" font-size="14px" font-weight="400" fill="rgba(13, 13, 13, 0.898)" style="font-size:14px;font-family:微软雅黑;color:#0D0D0DE5;font-style:normal;text-align:left;font-weight:400;"><tspan x="993" y="457"><tspan dx="0">任务创建方便选择</tspan></tspan></text></g><g><g transform="translate(968, 446.203125) scale(0.015625)"><circle cx="512" cy="512" r="576" stroke="#ffffff" stroke-width="64" fill="#ffffff"></circle><path d="M1024 512c0 282.768-229.232 512-512 512C229.232 1024 0 794.768 0 512 0 229.232 229.232 0 512 0c282.768 0 512 229.232 512 512zM526.352 233.744a15.936 15.936 0 0 0-28.704 0l-80.672 163.36c-2.336 4.8-6.832 8-12.048 8.8l-180.4 26.24c-13.12 1.92-18.368 18.08-8.864 27.2l130.528 127.36c3.776 3.68 5.504 8.96 4.608 14.08L320 780.464c-2.24 13.12 11.472 23.04 23.216 16.96l161.36-84.96c4.656-2.4 10.24-2.4 14.88 0l161.36 84.96c11.744 6.08 25.456-3.84 23.216-16.96l-30.816-179.68a15.888 15.888 0 0 1 4.608-14.08l130.528-127.36c9.504-9.12 4.256-25.28-8.864-27.2l-180.4-26.24a15.984 15.984 0 0 1-12.048-8.8l-80.672-163.36z" fill="rgb(248, 87, 103)"></path></g></g></g><g id="9fecbe8efb52e970"><rect x="955" y="490.203125" rx="1px" ry="1px" width="302" height="27" style="fill: transparent; stroke:none;stroke-width:0px;"></rect><g><text text-anchor="start" align="top" anchor="start" font-size="14px" font-weight="400" fill="rgba(13, 13, 13, 0.898)" style="font-size:14px;font-family:微软雅黑;color:#0D0D0DE5;font-style:normal;text-align:left;font-weight:400;"><tspan x="993" y="509"><tspan dx="0">插件化，导入导出，插件商店（进行中）</tspan></tspan></text></g><g><g transform="translate(968, 497.484375) scale(0.015625)"><circle cx="512" cy="512" r="576" stroke="#ffffff" stroke-width="64" fill="#ffffff"></circle><path d="M1024 512c0 282.768-229.232 512-512 512C229.232 1024 0 794.768 0 512 0 229.232 229.232 0 512 0c282.768 0 512 229.232 512 512zM526.352 233.744a15.936 15.936 0 0 0-28.704 0l-80.672 163.36c-2.336 4.8-6.832 8-12.048 8.8l-180.4 26.24c-13.12 1.92-18.368 18.08-8.864 27.2l130.528 127.36c3.776 3.68 5.504 8.96 4.608 14.08L320 780.464c-2.24 13.12 11.472 23.04 23.216 16.96l161.36-84.96c4.656-2.4 10.24-2.4 14.88 0l161.36 84.96c11.744 6.08 25.456-3.84 23.216-16.96l-30.816-179.68a15.888 15.888 0 0 1 4.608-14.08l130.528-127.36c9.504-9.12 4.256-25.28-8.864-27.2l-180.4-26.24a15.984 15.984 0 0 1-12.048-8.8l-80.672-163.36z" fill="rgb(248, 87, 103)"></path></g></g></g><g id="7032a4c6b2468e6c"><rect x="955" y="541.484375" rx="1px" ry="1px" width="162" height="27" style="fill: transparent; stroke:none;stroke-width:0px;"></rect><g><text text-anchor="start" align="top" anchor="start" font-size="14px" font-weight="400" fill="rgba(13, 13, 13, 0.898)" style="font-size:14px;font-family:微软雅黑;color:#0D0D0DE5;font-style:normal;text-align:left;font-weight:400;"><tspan x="993" y="560"><tspan dx="0">商用证书托管部署</tspan></tspan></text></g><g><g transform="translate(968, 548.765625) scale(0.015625)"><circle cx="512" cy="512" r="576" stroke="#ffffff" stroke-width="64" fill="#ffffff"></circle><path d="M1024 512c0 282.768-229.232 512-512 512C229.232 1024 0 794.768 0 512 0 229.232 229.232 0 512 0c282.768 0 512 229.232 512 512zM526.352 233.744a15.936 15.936 0 0 0-28.704 0l-80.672 163.36c-2.336 4.8-6.832 8-12.048 8.8l-180.4 26.24c-13.12 1.92-18.368 18.08-8.864 27.2l130.528 127.36c3.776 3.68 5.504 8.96 4.608 14.08L320 780.464c-2.24 13.12 11.472 23.04 23.216 16.96l161.36-84.96c4.656-2.4 10.24-2.4 14.88 0l161.36 84.96c11.744 6.08 25.456-3.84 23.216-16.96l-30.816-179.68a15.888 15.888 0 0 1 4.608-14.08l130.528-127.36c9.504-9.12 4.256-25.28-8.864-27.2l-180.4-26.24a15.984 15.984 0 0 1-12.048-8.8l-80.672-163.36z" fill="rgb(248, 87, 103)"></path></g></g></g><g id="d31b90d34354248f"><rect x="817" y="643.65625" rx="1px" ry="1px" width="106" height="27" style="fill: transparent; stroke:none;stroke-width:0px;"></rect><g><text text-anchor="start" align="top" anchor="start" font-size="14px" font-weight="400" fill="rgba(13, 13, 13, 0.898)" style="font-size:14px;font-family:微软雅黑;color:#0D0D0DE5;font-style:normal;text-align:left;font-weight:400;"><tspan x="855" y="662"><tspan dx="0">失败通知</tspan></tspan></text></g><g><g transform="translate(830, 650.9375) scale(0.015625)"><circle cx="512" cy="512" r="576" stroke="#ffffff" stroke-width="64" fill="#ffffff"></circle><path d="M1024 512c0 282.768-229.232 512-512 512C229.232 1024 0 794.768 0 512 0 229.232 229.232 0 512 0c282.768 0 512 229.232 512 512z m-249.104-137.648a31.984 31.984 0 1 0-45.792-44.704L439.456 626.208 278.896 461.808a32 32 0 0 0-45.792 44.72l183.456 187.84a32 32 0 0 0 45.792 0l312.544-320z" fill="rgb(0, 186, 74)"></path></g></g></g><g id="7234c7ecb346a63e"><rect x="955" y="592.765625" rx="1px" ry="1px" width="80" height="27" style="fill: transparent; stroke:none;stroke-width:0px;"></rect><g><text text-anchor="start" align="top" anchor="start" font-size="14px" font-weight="400" fill="rgba(13, 13, 13, 0.898)" style="font-size:14px;font-family:微软雅黑;color:#0D0D0DE5;font-style:normal;text-align:left;font-weight:400;"><tspan x="967" y="611"><tspan dx="0">邮件通知</tspan></tspan></text></g></g><g id="b244ef6a7032aca1"><rect x="955" y="643.78125" rx="1px" ry="1px" width="117" height="27" style="fill: transparent; stroke:none;stroke-width:0px;"></rect><g><text text-anchor="start" align="top" anchor="start" font-size="14px" font-weight="400" fill="rgba(13, 13, 13, 0.898)" style="font-size:14px;font-family:微软雅黑;color:#0D0D0DE5;font-style:normal;text-align:left;font-weight:400;"><tspan x="967" y="662"><tspan dx="0">Webhook通知</tspan></tspan></text></g></g><g id="9ff23d8b6eceb2f8"><rect x="955" y="694.796875" rx="1px" ry="1px" width="206" height="27" style="fill: transparent; stroke:none;stroke-width:0px;"></rect><g><text text-anchor="start" align="top" anchor="start" font-size="14px" font-weight="400" fill="rgba(13, 13, 13, 0.898)" style="font-size:14px;font-family:微软雅黑;color:#0D0D0DE5;font-style:normal;text-align:left;font-weight:400;"><tspan x="967" y="713"><tspan dx="0">其他钉钉、企微、飞书等通知</tspan></tspan></text></g></g><g id="d81618321a5acd60"><rect x="114" y="516.5" rx="1px" ry="1px" width="106" height="27" style="fill: transparent; stroke:none;stroke-width:0px;"></rect><g><text text-anchor="start" align="top" anchor="start" font-size="14px" font-weight="400" fill="rgba(13, 13, 13, 0.898)" style="font-size:14px;font-family:微软雅黑;color:#0D0D0DE5;font-style:normal;text-align:left;font-weight:400;"><tspan x="152" y="535"><tspan dx="0">权限管理</tspan></tspan></text></g><g><g transform="translate(127, 523.78125) scale(0.015625)"><circle cx="512" cy="512" r="576" stroke="#ffffff" stroke-width="64" fill="#ffffff"></circle><path d="M1024 512c0 282.768-229.232 512-512 512C229.232 1024 0 794.768 0 512 0 229.232 229.232 0 512 0c282.768 0 512 229.232 512 512zM526.352 233.744a15.936 15.936 0 0 0-28.704 0l-80.672 163.36c-2.336 4.8-6.832 8-12.048 8.8l-180.4 26.24c-13.12 1.92-18.368 18.08-8.864 27.2l130.528 127.36c3.776 3.68 5.504 8.96 4.608 14.08L320 780.464c-2.24 13.12 11.472 23.04 23.216 16.96l161.36-84.96c4.656-2.4 10.24-2.4 14.88 0l161.36 84.96c11.744 6.08 25.456-3.84 23.216-16.96l-30.816-179.68a15.888 15.888 0 0 1 4.608-14.08l130.528-127.36c9.504-9.12 4.256-25.28-8.864-27.2l-180.4-26.24a15.984 15.984 0 0 1-12.048-8.8l-80.672-163.36z" fill="rgb(248, 87, 103)"></path></g></g></g><g id="f85ebc2e7988110f"><rect x="100" y="567.78125" rx="1px" ry="1px" width="120" height="27" style="fill: transparent; stroke:none;stroke-width:0px;"></rect><g><text text-anchor="start" align="top" anchor="start" font-size="14px" font-weight="400" fill="rgba(13, 13, 13, 0.898)" style="font-size:14px;font-family:微软雅黑;color:#0D0D0DE5;font-style:normal;text-align:left;font-weight:400;"><tspan x="138" y="586"><tspan dx="0">多用户使用</tspan></tspan></text></g><g><g transform="translate(113, 575.0625) scale(0.015625)"><circle cx="512" cy="512" r="576" stroke="#ffffff" stroke-width="64" fill="#ffffff"></circle><path d="M1024 512c0 282.768-229.232 512-512 512C229.232 1024 0 794.768 0 512 0 229.232 229.232 0 512 0c282.768 0 512 229.232 512 512zM526.352 233.744a15.936 15.936 0 0 0-28.704 0l-80.672 163.36c-2.336 4.8-6.832 8-12.048 8.8l-180.4 26.24c-13.12 1.92-18.368 18.08-8.864 27.2l130.528 127.36c3.776 3.68 5.504 8.96 4.608 14.08L320 780.464c-2.24 13.12 11.472 23.04 23.216 16.96l161.36-84.96c4.656-2.4 10.24-2.4 14.88 0l161.36 84.96c11.744 6.08 25.456-3.84 23.216-16.96l-30.816-179.68a15.888 15.888 0 0 1 4.608-14.08l130.528-127.36c9.504-9.12 4.256-25.28-8.864-27.2l-180.4-26.24a15.984 15.984 0 0 1-12.048-8.8l-80.672-163.36z" fill="rgb(248, 87, 103)"></path></g></g></g><g id="b4cfad9229538b68"><rect x="30" y="619.0625" rx="1px" ry="1px" width="52" height="27" style="fill: transparent; stroke:none;stroke-width:0px;"></rect><g><text text-anchor="start" align="top" anchor="start" font-size="14px" font-weight="400" fill="rgba(13, 13, 13, 0.898)" style="font-size:14px;font-family:微软雅黑;color:#0D0D0DE5;font-style:normal;text-align:left;font-weight:400;"><tspan x="42" y="637"><tspan dx="0">支付</tspan></tspan></text></g></g><g id="85aa6680be86bb10"><rect x="30" y="670.078125" rx="1px" ry="1px" width="52" height="27" style="fill: transparent; stroke:none;stroke-width:0px;"></rect><g><text text-anchor="start" align="top" anchor="start" font-size="14px" font-weight="400" fill="rgba(13, 13, 13, 0.898)" style="font-size:14px;font-family:微软雅黑;color:#0D0D0DE5;font-style:normal;text-align:left;font-weight:400;"><tspan x="42" y="689"><tspan dx="0">订单</tspan></tspan></text></g></g><g id="0eaa4c55b1e407f9"><rect x="114" y="644.4375" rx="1px" ry="1px" width="106" height="27" style="fill: transparent; stroke:none;stroke-width:0px;"></rect><g><text text-anchor="start" align="top" anchor="start" font-size="14px" font-weight="400" fill="rgba(13, 13, 13, 0.898)" style="font-size:14px;font-family:微软雅黑;color:#0D0D0DE5;font-style:normal;text-align:left;font-weight:400;"><tspan x="152" y="663"><tspan dx="0">用户套餐</tspan></tspan></text></g><g><g transform="translate(127, 651.71875) scale(0.015625)"><circle cx="512" cy="512" r="576" stroke="#ffffff" stroke-width="64" fill="#ffffff"></circle><path d="M1024 512c0 282.768-229.232 512-512 512C229.232 1024 0 794.768 0 512 0 229.232 229.232 0 512 0c282.768 0 512 229.232 512 512zM526.352 233.744a15.936 15.936 0 0 0-28.704 0l-80.672 163.36c-2.336 4.8-6.832 8-12.048 8.8l-180.4 26.24c-13.12 1.92-18.368 18.08-8.864 27.2l130.528 127.36c3.776 3.68 5.504 8.96 4.608 14.08L320 780.464c-2.24 13.12 11.472 23.04 23.216 16.96l161.36-84.96c4.656-2.4 10.24-2.4 14.88 0l161.36 84.96c11.744 6.08 25.456-3.84 23.216-16.96l-30.816-179.68a15.888 15.888 0 0 1 4.608-14.08l130.528-127.36c9.504-9.12 4.256-25.28-8.864-27.2l-180.4-26.24a15.984 15.984 0 0 1-12.048-8.8l-80.672-163.36z" fill="rgb(248, 87, 103)"></path></g></g></g><g id="01764e9f63d000b4"><rect x="252" y="588.15625" rx="10px" ry="10px" width="96" height="37" style="fill: #EEEEEE; stroke:none;stroke-width:0px;"></rect><g><text text-anchor="start" align="top" anchor="start" font-size="14px" font-weight="normal" fill="rgba(13, 13, 13, 0.898)" style="font-size:14px;font-family:微软雅黑;color:#0D0D0DE5;font-style:normal;text-align:left;font-weight:normal;"><tspan x="292" y="612"><tspan dx="0">多租户</tspan></tspan></text></g><g><g transform="translate(267, 600.4375) scale(0.015625)"><circle cx="512" cy="512" r="576" stroke="#ffffff" stroke-width="64" fill="#ffffff"></circle><path d="M1024 512c0 282.768-229.232 512-512 512C229.232 1024 0 794.768 0 512 0 229.232 229.232 0 512 0c282.768 0 512 229.232 512 512zM526.352 233.744a15.936 15.936 0 0 0-28.704 0l-80.672 163.36c-2.336 4.8-6.832 8-12.048 8.8l-180.4 26.24c-13.12 1.92-18.368 18.08-8.864 27.2l130.528 127.36c3.776 3.68 5.504 8.96 4.608 14.08L320 780.464c-2.24 13.12 11.472 23.04 23.216 16.96l161.36-84.96c4.656-2.4 10.24-2.4 14.88 0l161.36 84.96c11.744 6.08 25.456-3.84 23.216-16.96l-30.816-179.68a15.888 15.888 0 0 1 4.608-14.08l130.528-127.36c9.504-9.12 4.256-25.28-8.864-27.2l-180.4-26.24a15.984 15.984 0 0 1-12.048-8.8l-80.672-163.36z" fill="rgb(248, 87, 103)"></path></g></g></g><g id="514af6c2f3320be6"><rect x="30" y="413.5" rx="1px" ry="1px" width="148" height="27" style="fill: transparent; stroke:none;stroke-width:0px;"></rect><g><text text-anchor="start" align="top" anchor="start" font-size="14px" font-weight="400" fill="rgba(13, 13, 13, 0.898)" style="font-size:14px;font-family:微软雅黑;color:#0D0D0DE5;font-style:normal;text-align:left;font-weight:400;"><tspan x="68" y="432"><tspan dx="0">站点可用性检查</tspan></tspan></text></g><g><g transform="translate(43, 420.78125) scale(0.015625)"><circle cx="512" cy="512" r="576" stroke="#ffffff" stroke-width="64" fill="#ffffff"></circle><path d="M1024 512c0 282.768-229.232 512-512 512C229.232 1024 0 794.768 0 512 0 229.232 229.232 0 512 0c282.768 0 512 229.232 512 512zM526.352 233.744a15.936 15.936 0 0 0-28.704 0l-80.672 163.36c-2.336 4.8-6.832 8-12.048 8.8l-180.4 26.24c-13.12 1.92-18.368 18.08-8.864 27.2l130.528 127.36c3.776 3.68 5.504 8.96 4.608 14.08L320 780.464c-2.24 13.12 11.472 23.04 23.216 16.96l161.36-84.96c4.656-2.4 10.24-2.4 14.88 0l161.36 84.96c11.744 6.08 25.456-3.84 23.216-16.96l-30.816-179.68a15.888 15.888 0 0 1 4.608-14.08l130.528-127.36c9.504-9.12 4.256-25.28-8.864-27.2l-180.4-26.24a15.984 15.984 0 0 1-12.048-8.8l-80.672-163.36z" fill="rgb(248, 87, 103)"></path></g></g></g><g id="633d7d84abecec25"><rect x="44" y="464.78125" rx="1px" ry="1px" width="134" height="27" style="fill: transparent; stroke:none;stroke-width:0px;"></rect><g><text text-anchor="start" align="top" anchor="start" font-size="14px" font-weight="400" fill="rgba(13, 13, 13, 0.898)" style="font-size:14px;font-family:微软雅黑;color:#0D0D0DE5;font-style:normal;text-align:left;font-weight:400;"><tspan x="82" y="483"><tspan dx="0">证书过期检查</tspan></tspan></text></g><g><g transform="translate(57, 472.0625) scale(0.015625)"><circle cx="512" cy="512" r="576" stroke="#ffffff" stroke-width="64" fill="#ffffff"></circle><path d="M1024 512c0 282.768-229.232 512-512 512C229.232 1024 0 794.768 0 512 0 229.232 229.232 0 512 0c282.768 0 512 229.232 512 512zM526.352 233.744a15.936 15.936 0 0 0-28.704 0l-80.672 163.36c-2.336 4.8-6.832 8-12.048 8.8l-180.4 26.24c-13.12 1.92-18.368 18.08-8.864 27.2l130.528 127.36c3.776 3.68 5.504 8.96 4.608 14.08L320 780.464c-2.24 13.12 11.472 23.04 23.216 16.96l161.36-84.96c4.656-2.4 10.24-2.4 14.88 0l161.36 84.96c11.744 6.08 25.456-3.84 23.216-16.96l-30.816-179.68a15.888 15.888 0 0 1 4.608-14.08l130.528-127.36c9.504-9.12 4.256-25.28-8.864-27.2l-180.4-26.24a15.984 15.984 0 0 1-12.048-8.8l-80.672-163.36z" fill="rgb(248, 87, 103)"></path></g></g></g><g id="62a8598c271a1788"><rect x="210" y="434.140625" rx="10px" ry="10px" width="138" height="37" style="fill: #EEEEEE; stroke:none;stroke-width:0px;"></rect><g><text text-anchor="start" align="top" anchor="start" font-size="14px" font-weight="normal" fill="rgba(13, 13, 13, 0.898)" style="font-size:14px;font-family:微软雅黑;color:#0D0D0DE5;font-style:normal;text-align:left;font-weight:normal;"><tspan x="250" y="458"><tspan dx="0">站点证书监控</tspan></tspan></text></g><g><g transform="translate(225, 446.421875) scale(0.015625)"><circle cx="512" cy="512" r="576" stroke="#ffffff" stroke-width="64" fill="#ffffff"></circle><path d="M1024 512c0 282.768-229.232 512-512 512C229.232 1024 0 794.768 0 512 0 229.232 229.232 0 512 0c282.768 0 512 229.232 512 512zM526.352 233.744a15.936 15.936 0 0 0-28.704 0l-80.672 163.36c-2.336 4.8-6.832 8-12.048 8.8l-180.4 26.24c-13.12 1.92-18.368 18.08-8.864 27.2l130.528 127.36c3.776 3.68 5.504 8.96 4.608 14.08L320 780.464c-2.24 13.12 11.472 23.04 23.216 16.96l161.36-84.96c4.656-2.4 10.24-2.4 14.88 0l161.36 84.96c11.744 6.08 25.456-3.84 23.216-16.96l-30.816-179.68a15.888 15.888 0 0 1 4.608-14.08l130.528-127.36c9.504-9.12 4.256-25.28-8.864-27.2l-180.4-26.24a15.984 15.984 0 0 1-12.048-8.8l-80.672-163.36z" fill="rgb(248, 87, 103)"></path></g></g></g><g id="0690af27852de585"><rect x="72" y="310.5" rx="1px" ry="1px" width="134" height="27" style="fill: transparent; stroke:none;stroke-width:0px;"></rect><g><text text-anchor="start" align="top" anchor="start" font-size="14px" font-weight="400" fill="rgba(13, 13, 13, 0.898)" style="font-size:14px;font-family:微软雅黑;color:#0D0D0DE5;font-style:normal;text-align:left;font-weight:400;"><tspan x="110" y="329"><tspan dx="0">证书获取接口</tspan></tspan></text></g><g><g transform="translate(85, 317.78125) scale(0.015625)"><circle cx="512" cy="512" r="576" stroke="#ffffff" stroke-width="64" fill="#ffffff"></circle><path d="M1024 512c0 282.768-229.232 512-512 512C229.232 1024 0 794.768 0 512 0 229.232 229.232 0 512 0c282.768 0 512 229.232 512 512zM526.352 233.744a15.936 15.936 0 0 0-28.704 0l-80.672 163.36c-2.336 4.8-6.832 8-12.048 8.8l-180.4 26.24c-13.12 1.92-18.368 18.08-8.864 27.2l130.528 127.36c3.776 3.68 5.504 8.96 4.608 14.08L320 780.464c-2.24 13.12 11.472 23.04 23.216 16.96l161.36-84.96c4.656-2.4 10.24-2.4 14.88 0l161.36 84.96c11.744 6.08 25.456-3.84 23.216-16.96l-30.816-179.68a15.888 15.888 0 0 1 4.608-14.08l130.528-127.36c9.504-9.12 4.256-25.28-8.864-27.2l-180.4-26.24a15.984 15.984 0 0 1-12.048-8.8l-80.672-163.36z" fill="rgb(248, 87, 103)"></path></g></g></g><g id="896e80a4bbf7a80d"><rect x="128.359375" y="361.78125" rx="1px" ry="1px" width="78" height="27" style="fill: transparent; stroke:none;stroke-width:0px;"></rect><g><text text-anchor="start" align="top" anchor="start" font-size="14px" font-weight="400" fill="rgba(13, 13, 13, 0.898)" style="font-size:14px;font-family:微软雅黑;color:#0D0D0DE5;font-style:normal;text-align:left;font-weight:400;"><tspan x="166" y="380"><tspan dx="0">SDK</tspan></tspan></text></g><g><g transform="translate(141.359375, 369.0625) scale(0.015625)"><circle cx="512" cy="512" r="576" stroke="#ffffff" stroke-width="64" fill="#ffffff"></circle><path d="M1024 512c0 282.768-229.232 512-512 512C229.232 1024 0 794.768 0 512 0 229.232 229.232 0 512 0c282.768 0 512 229.232 512 512zM526.352 233.744a15.936 15.936 0 0 0-28.704 0l-80.672 163.36c-2.336 4.8-6.832 8-12.048 8.8l-180.4 26.24c-13.12 1.92-18.368 18.08-8.864 27.2l130.528 127.36c3.776 3.68 5.504 8.96 4.608 14.08L320 780.464c-2.24 13.12 11.472 23.04 23.216 16.96l161.36-84.96c4.656-2.4 10.24-2.4 14.88 0l161.36 84.96c11.744 6.08 25.456-3.84 23.216-16.96l-30.816-179.68a15.888 15.888 0 0 1 4.608-14.08l130.528-127.36c9.504-9.12 4.256-25.28-8.864-27.2l-180.4-26.24a15.984 15.984 0 0 1-12.048-8.8l-80.672-163.36z" fill="rgb(248, 87, 103)"></path></g></g></g><g id="f5a2bf7a991c1a38"><rect x="238" y="331.140625" rx="10px" ry="10px" width="110" height="37" style="fill: #EEEEEE; stroke:none;stroke-width:0px;"></rect><g><text text-anchor="start" align="top" anchor="start" font-size="14px" font-weight="normal" fill="rgba(13, 13, 13, 0.898)" style="font-size:14px;font-family:微软雅黑;color:#0D0D0DE5;font-style:normal;text-align:left;font-weight:normal;"><tspan x="278" y="355"><tspan dx="0">开放接口</tspan></tspan></text></g><g><g transform="translate(253, 343.421875) scale(0.015625)"><circle cx="512" cy="512" r="576" stroke="#ffffff" stroke-width="64" fill="#ffffff"></circle><path d="M1024 512c0 282.768-229.232 512-512 512C229.232 1024 0 794.768 0 512 0 229.232 229.232 0 512 0c282.768 0 512 229.232 512 512zM526.352 233.744a15.936 15.936 0 0 0-28.704 0l-80.672 163.36c-2.336 4.8-6.832 8-12.048 8.8l-180.4 26.24c-13.12 1.92-18.368 18.08-8.864 27.2l130.528 127.36c3.776 3.68 5.504 8.96 4.608 14.08L320 780.464c-2.24 13.12 11.472 23.04 23.216 16.96l161.36-84.96c4.656-2.4 10.24-2.4 14.88 0l161.36 84.96c11.744 6.08 25.456-3.84 23.216-16.96l-30.816-179.68a15.888 15.888 0 0 1 4.608-14.08l130.528-127.36c9.504-9.12 4.256-25.28-8.864-27.2l-180.4-26.24a15.984 15.984 0 0 1-12.048-8.8l-80.672-163.36z" fill="rgb(248, 87, 103)"></path></g></g></g><g id="ecd7c596a6ae3540"><rect x="112" y="54.5" rx="1px" ry="1px" width="94" height="27" style="fill: transparent; stroke:none;stroke-width:0px;"></rect><g><text text-anchor="start" align="top" anchor="start" font-size="14px" font-weight="400" fill="rgba(13, 13, 13, 0.898)" style="font-size:14px;font-family:微软雅黑;color:#0D0D0DE5;font-style:normal;text-align:left;font-weight:400;"><tspan x="124" y="73"><tspan dx="0">私有化部署</tspan></tspan></text></g></g><g id="f2679db6f1f59787"><rect x="86" y="105.515625" rx="1px" ry="1px" width="120" height="27" style="fill: transparent; stroke:none;stroke-width:0px;"></rect><g><text text-anchor="start" align="top" anchor="start" font-size="14px" font-weight="400" fill="rgba(13, 13, 13, 0.898)" style="font-size:14px;font-family:微软雅黑;color:#0D0D0DE5;font-style:normal;text-align:left;font-weight:400;"><tspan x="124" y="124"><tspan dx="0">密码防爆破</tspan></tspan></text></g><g><g transform="translate(99, 112.796875) scale(0.015625)"><circle cx="512" cy="512" r="576" stroke="#ffffff" stroke-width="64" fill="#ffffff"></circle><path d="M1024 512c0 282.768-229.232 512-512 512C229.232 1024 0 794.768 0 512 0 229.232 229.232 0 512 0c282.768 0 512 229.232 512 512zM526.352 233.744a15.936 15.936 0 0 0-28.704 0l-80.672 163.36c-2.336 4.8-6.832 8-12.048 8.8l-180.4 26.24c-13.12 1.92-18.368 18.08-8.864 27.2l130.528 127.36c3.776 3.68 5.504 8.96 4.608 14.08L320 780.464c-2.24 13.12 11.472 23.04 23.216 16.96l161.36-84.96c4.656-2.4 10.24-2.4 14.88 0l161.36 84.96c11.744 6.08 25.456-3.84 23.216-16.96l-30.816-179.68a15.888 15.888 0 0 1 4.608-14.08l130.528-127.36c9.504-9.12 4.256-25.28-8.864-27.2l-180.4-26.24a15.984 15.984 0 0 1-12.048-8.8l-80.672-163.36z" fill="rgb(248, 87, 103)"></path></g></g></g><g id="8a38d9c42afa3867"><rect x="100" y="156.796875" rx="1px" ry="1px" width="106" height="27" style="fill: transparent; stroke:none;stroke-width:0px;"></rect><g><text text-anchor="start" align="top" anchor="start" font-size="14px" font-weight="400" fill="rgba(13, 13, 13, 0.898)" style="font-size:14px;font-family:微软雅黑;color:#0D0D0DE5;font-style:normal;text-align:left;font-weight:400;"><tspan x="138" y="175"><tspan dx="0">站点隐藏</tspan></tspan></text></g><g><g transform="translate(113, 164.078125) scale(0.015625)"><circle cx="512" cy="512" r="576" stroke="#ffffff" stroke-width="64" fill="#ffffff"></circle><path d="M1024 512c0 282.768-229.232 512-512 512C229.232 1024 0 794.768 0 512 0 229.232 229.232 0 512 0c282.768 0 512 229.232 512 512zM526.352 233.744a15.936 15.936 0 0 0-28.704 0l-80.672 163.36c-2.336 4.8-6.832 8-12.048 8.8l-180.4 26.24c-13.12 1.92-18.368 18.08-8.864 27.2l130.528 127.36c3.776 3.68 5.504 8.96 4.608 14.08L320 780.464c-2.24 13.12 11.472 23.04 23.216 16.96l161.36-84.96c4.656-2.4 10.24-2.4 14.88 0l161.36 84.96c11.744 6.08 25.456-3.84 23.216-16.96l-30.816-179.68a15.888 15.888 0 0 1 4.608-14.08l130.528-127.36c9.504-9.12 4.256-25.28-8.864-27.2l-180.4-26.24a15.984 15.984 0 0 1-12.048-8.8l-80.672-163.36z" fill="rgb(248, 87, 103)"></path></g></g></g><g id="82e530506d0e42f7"><rect x="100" y="208.078125" rx="1px" ry="1px" width="106" height="27" style="fill: transparent; stroke:none;stroke-width:0px;"></rect><g><text text-anchor="start" align="top" anchor="start" font-size="14px" font-weight="400" fill="rgba(13, 13, 13, 0.898)" style="font-size:14px;font-family:微软雅黑;color:#0D0D0DE5;font-style:normal;text-align:left;font-weight:400;"><tspan x="138" y="227"><tspan dx="0">授权加密</tspan></tspan></text></g><g><g transform="translate(113, 215.359375) scale(0.015625)"><circle cx="512" cy="512" r="576" stroke="#ffffff" stroke-width="64" fill="#ffffff"></circle><path d="M1024 512c0 282.768-229.232 512-512 512C229.232 1024 0 794.768 0 512 0 229.232 229.232 0 512 0c282.768 0 512 229.232 512 512zM526.352 233.744a15.936 15.936 0 0 0-28.704 0l-80.672 163.36c-2.336 4.8-6.832 8-12.048 8.8l-180.4 26.24c-13.12 1.92-18.368 18.08-8.864 27.2l130.528 127.36c3.776 3.68 5.504 8.96 4.608 14.08L320 780.464c-2.24 13.12 11.472 23.04 23.216 16.96l161.36-84.96c4.656-2.4 10.24-2.4 14.88 0l161.36 84.96c11.744 6.08 25.456-3.84 23.216-16.96l-30.816-179.68a15.888 15.888 0 0 1 4.608-14.08l130.528-127.36c9.504-9.12 4.256-25.28-8.864-27.2l-180.4-26.24a15.984 15.984 0 0 1-12.048-8.8l-80.672-163.36z" fill="rgb(248, 87, 103)"></path></g></g></g><g id="65cc8993956b6997"><rect x="100" y="259.359375" rx="1px" ry="1px" width="106" height="27" style="fill: transparent; stroke:none;stroke-width:0px;"></rect><g><text text-anchor="start" align="top" anchor="start" font-size="14px" font-weight="400" fill="rgba(13, 13, 13, 0.898)" style="font-size:14px;font-family:微软雅黑;color:#0D0D0DE5;font-style:normal;text-align:left;font-weight:400;"><tspan x="138" y="278"><tspan dx="0">数据备份</tspan></tspan></text></g><g><g transform="translate(113, 266.640625) scale(0.015625)"><circle cx="512" cy="512" r="576" stroke="#ffffff" stroke-width="64" fill="#ffffff"></circle><path d="M1024 512c0 282.768-229.232 512-512 512C229.232 1024 0 794.768 0 512 0 229.232 229.232 0 512 0c282.768 0 512 229.232 512 512zM526.352 233.744a15.936 15.936 0 0 0-28.704 0l-80.672 163.36c-2.336 4.8-6.832 8-12.048 8.8l-180.4 26.24c-13.12 1.92-18.368 18.08-8.864 27.2l130.528 127.36c3.776 3.68 5.504 8.96 4.608 14.08L320 780.464c-2.24 13.12 11.472 23.04 23.216 16.96l161.36-84.96c4.656-2.4 10.24-2.4 14.88 0l161.36 84.96c11.744 6.08 25.456-3.84 23.216-16.96l-30.816-179.68a15.888 15.888 0 0 1 4.608-14.08l130.528-127.36c9.504-9.12 4.256-25.28-8.864-27.2l-180.4-26.24a15.984 15.984 0 0 1-12.048-8.8l-80.672-163.36z" fill="rgb(248, 87, 103)"></path></g></g></g><g id="402161a29e30671a"><rect x="238" y="151.9375" rx="10px" ry="10px" width="110" height="37" style="fill: #EEEEEE; stroke:none;stroke-width:0px;"></rect><g><text text-anchor="start" align="top" anchor="start" font-size="14px" font-weight="normal" fill="rgba(13, 13, 13, 0.898)" style="font-size:14px;font-family:微软雅黑;color:#0D0D0DE5;font-style:normal;text-align:left;font-weight:normal;"><tspan x="278" y="175"><tspan dx="0">站点安全</tspan></tspan></text></g><g><g transform="translate(253, 164.21875) scale(0.015625)"><circle cx="512" cy="512" r="576" stroke="#ffffff" stroke-width="64" fill="#ffffff"></circle><path d="M1024 512c0 282.768-229.232 512-512 512C229.232 1024 0 794.768 0 512 0 229.232 229.232 0 512 0c282.768 0 512 229.232 512 512zM526.352 233.744a15.936 15.936 0 0 0-28.704 0l-80.672 163.36c-2.336 4.8-6.832 8-12.048 8.8l-180.4 26.24c-13.12 1.92-18.368 18.08-8.864 27.2l130.528 127.36c3.776 3.68 5.504 8.96 4.608 14.08L320 780.464c-2.24 13.12 11.472 23.04 23.216 16.96l161.36-84.96c4.656-2.4 10.24-2.4 14.88 0l161.36 84.96c11.744 6.08 25.456-3.84 23.216-16.96l-30.816-179.68a15.888 15.888 0 0 1 4.608-14.08l130.528-127.36c9.504-9.12 4.256-25.28-8.864-27.2l-180.4-26.24a15.984 15.984 0 0 1-12.048-8.8l-80.672-163.36z" fill="rgb(248, 87, 103)"></path></g></g></g><g transform="translate(661, 30)" id="sdjakdjak0"><g id="subline_a0d5f4081bac7303" transform="translate(0.5, 0.5)"><path id="line_46e13935e62c8b42" d="M 124 345.90625 L 142 345.90625 L 142 145.3125 A 4 4 0 0 1 146 141.3125 L 156 141.3125" p="a0d5f4081bac7303" stroke="#484848" fill="none" stroke-linecap="square" stroke-width="2"></path><path id="line_b7824834043bbb38" d="M 262 141.3125 L 280 141.3125 L 280 17.5078125 A 4 4 0 0 1 284 13.5078125 L 294 13.5078125" p="46e13935e62c8b42" stroke="#484848" fill="none" stroke-linecap="square" stroke-width="2"></path><path id="line_26b9492a7616fee1" d="M 262 141.3125 L 280 141.3125 L 280 68.5234375 A 4 4 0 0 1 284 64.5234375 L 294 64.5234375" p="46e13935e62c8b42" stroke="#484848" fill="none" stroke-linecap="square" stroke-width="2"></path><path id="line_700fc8508d0db44b" d="M 262 141.3125 L 280 141.3125 L 280 119.5390625 A 4 4 0 0 1 284 115.5390625 L 294 115.5390625" p="46e13935e62c8b42" stroke="#484848" fill="none" stroke-linecap="square" stroke-width="2"></path><path id="line_2ab2fd0ce04407d5" d="M 262 141.3125 L 280 141.3125 L 280 162.5546875 A 4 4 0 0 0 284 166.5546875 L 294 166.5546875" p="46e13935e62c8b42" stroke="#484848" fill="none" stroke-linecap="square" stroke-width="2"></path><path id="line_e6460d41b84b05da" d="M 262 141.3125 L 280 141.3125 L 280 213.703125 A 4 4 0 0 0 284 217.703125 L 294 217.703125" p="46e13935e62c8b42" stroke="#484848" fill="none" stroke-linecap="square" stroke-width="2"></path><path id="line_82fecc0849207a06" d="M 262 141.3125 L 280 141.3125 L 280 264.984375 A 4 4 0 0 0 284 268.984375 L 294 268.984375" p="46e13935e62c8b42" stroke="#484848" fill="none" stroke-linecap="square" stroke-width="2"></path><path id="line_eee917cc413a8855" d="M 124 345.90625 L 142 345.90625 L 142 418.703125 A 4 4 0 0 0 146 422.703125 L 156 422.703125" p="a0d5f4081bac7303" stroke="#484848" fill="none" stroke-linecap="square" stroke-width="2"></path><path id="line_1cde76dd2d9c096f" d="M 262 422.703125 L 280 422.703125 L 280 324.1328125 A 4 4 0 0 1 284 320.1328125 L 294 320.1328125" p="eee917cc413a8855" stroke="#484848" fill="none" stroke-linecap="square" stroke-width="2"></path><path id="line_60ea1ff0c1930715" d="M 262 422.703125 L 280 422.703125 L 280 375.28125 A 4 4 0 0 1 284 371.28125 L 294 371.28125" p="eee917cc413a8855" stroke="#484848" fill="none" stroke-linecap="square" stroke-width="2"></path><path id="line_a918b60520769ef0" d="M 262 422.703125 L 280 422.703125 L 280 422.5625 L 294 422.5625" p="eee917cc413a8855" stroke="#484848" fill="none" stroke-linecap="square" stroke-width="2"></path><path id="line_9fecbe8efb52e970" d="M 262 422.703125 L 280 422.703125 L 280 469.84375 A 4 4 0 0 0 284 473.84375 L 294 473.84375" p="eee917cc413a8855" stroke="#484848" fill="none" stroke-linecap="square" stroke-width="2"></path><path id="line_7032a4c6b2468e6c" d="M 262 422.703125 L 280 422.703125 L 280 521.125 A 4 4 0 0 0 284 525.125 L 294 525.125" p="eee917cc413a8855" stroke="#484848" fill="none" stroke-linecap="square" stroke-width="2"></path><path id="line_d31b90d34354248f" d="M 124 345.90625 L 142 345.90625 L 142 623.296875 A 4 4 0 0 0 146 627.296875 L 156 627.296875" p="a0d5f4081bac7303" stroke="#484848" fill="none" stroke-linecap="square" stroke-width="2"></path><path id="line_7234c7ecb346a63e" d="M 262 627.296875 L 280 627.296875 L 280 580.2734375 A 4 4 0 0 1 284 576.2734375 L 294 576.2734375" p="d31b90d34354248f" stroke="#484848" fill="none" stroke-linecap="square" stroke-width="2"></path><path id="line_b244ef6a7032aca1" d="M 262 627.296875 L 280 627.296875 L 280 627.2890625 L 294 627.2890625" p="d31b90d34354248f" stroke="#484848" fill="none" stroke-linecap="square" stroke-width="2"></path><path id="line_9ff23d8b6eceb2f8" d="M 262 627.296875 L 280 627.296875 L 280 674.3046875 A 4 4 0 0 0 284 678.3046875 L 294 678.3046875" p="d31b90d34354248f" stroke="#484848" fill="none" stroke-linecap="square" stroke-width="2"></path></g><g transform="translate(0.5,0.5)"></g><g class="svg-summary-con" transform="translate(0.5,0.5)"></g><g class="svg-boundary-con" transform="translate(0.5,0.5)"></g></g><g transform="translate(30, 516.5)" id="sdjakdjak1"><g id="subline_01764e9f63d000b4" transform="translate(0.5, 0.5)"><path id="line_d81618321a5acd60" d="M 222 90.296875 L 204 90.296875 L 204 17.640625 A 4 4 0 0 0 200 13.640625 L 190 13.640625" p="01764e9f63d000b4" stroke="#484848" fill="none" stroke-linecap="square" stroke-width="2"></path><path id="line_f85ebc2e7988110f" d="M 222 90.296875 L 204 90.296875 L 204 68.921875 A 4 4 0 0 0 200 64.921875 L 190 64.921875" p="01764e9f63d000b4" stroke="#484848" fill="none" stroke-linecap="square" stroke-width="2"></path><path id="line_0eaa4c55b1e407f9" d="M 222 90.296875 L 204 90.296875 L 204 137.578125 A 4 4 0 0 1 200 141.578125 L 190 141.578125" p="01764e9f63d000b4" stroke="#484848" fill="none" stroke-linecap="square" stroke-width="2"></path><path id="line_b4cfad9229538b68" d="M 84 141.578125 L 66 141.578125 L 66 120.0703125 A 4 4 0 0 0 62 116.0703125 L 52 116.0703125" p="0eaa4c55b1e407f9" stroke="#484848" fill="none" stroke-linecap="square" stroke-width="2"></path><path id="line_85aa6680be86bb10" d="M 84 141.578125 L 66 141.578125 L 66 163.0859375 A 4 4 0 0 1 62 167.0859375 L 52 167.0859375" p="0eaa4c55b1e407f9" stroke="#484848" fill="none" stroke-linecap="square" stroke-width="2"></path></g><g transform="translate(0.5,0.5)"></g><g class="svg-summary-con" transform="translate(0.5,0.5)"></g><g class="svg-boundary-con" transform="translate(0.5,0.5)"></g></g><g transform="translate(30, 413.5)" id="sdjakdjak2"><g id="subline_62a8598c271a1788" transform="translate(0.5, 0.5)"><path id="line_514af6c2f3320be6" d="M 180 39.28125 L 162 39.28125 L 162 17.640625 A 4 4 0 0 0 158 13.640625 L 148 13.640625" p="62a8598c271a1788" stroke="#484848" fill="none" stroke-linecap="square" stroke-width="2"></path><path id="line_633d7d84abecec25" d="M 180 39.28125 L 162 39.28125 L 162 60.921875 A 4 4 0 0 1 158 64.921875 L 148 64.921875" p="62a8598c271a1788" stroke="#484848" fill="none" stroke-linecap="square" stroke-width="2"></path></g><g transform="translate(0.5,0.5)"></g><g class="svg-summary-con" transform="translate(0.5,0.5)"></g><g class="svg-boundary-con" transform="translate(0.5,0.5)"></g></g><g transform="translate(72, 310.5)" id="sdjakdjak3"><g id="subline_f5a2bf7a991c1a38" transform="translate(0.5, 0.5)"><path id="line_0690af27852de585" d="M 166 39.28125 L 148 39.28125 L 148 17.640625 A 4 4 0 0 0 144 13.640625 L 134 13.640625" p="f5a2bf7a991c1a38" stroke="#484848" fill="none" stroke-linecap="square" stroke-width="2"></path><path id="line_896e80a4bbf7a80d" d="M 166 39.28125 L 148 39.28125 L 148 60.921875 A 4 4 0 0 1 144 64.921875 L 134 64.921875" p="f5a2bf7a991c1a38" stroke="#484848" fill="none" stroke-linecap="square" stroke-width="2"></path></g><g transform="translate(0.5,0.5)"></g><g class="svg-summary-con" transform="translate(0.5,0.5)"></g><g class="svg-boundary-con" transform="translate(0.5,0.5)"></g></g><g transform="translate(86, 54.5)" id="sdjakdjak4"><g id="subline_402161a29e30671a" transform="translate(0.5, 0.5)"><path id="line_ecd7c596a6ae3540" d="M 152 116.0703125 L 134 116.0703125 L 134 17.5078125 A 4 4 0 0 0 130 13.5078125 L 120 13.5078125" p="402161a29e30671a" stroke="#484848" fill="none" stroke-linecap="square" stroke-width="2"></path><path id="line_f2679db6f1f59787" d="M 152 116.0703125 L 134 116.0703125 L 134 68.65625 A 4 4 0 0 0 130 64.65625 L 120 64.65625" p="402161a29e30671a" stroke="#484848" fill="none" stroke-linecap="square" stroke-width="2"></path><path id="line_8a38d9c42afa3867" d="M 152 116.0703125 L 134 116.0703125 L 134 115.9375 L 120 115.9375" p="402161a29e30671a" stroke="#484848" fill="none" stroke-linecap="square" stroke-width="2"></path><path id="line_82e530506d0e42f7" d="M 152 116.0703125 L 134 116.0703125 L 134 163.21875 A 4 4 0 0 1 130 167.21875 L 120 167.21875" p="402161a29e30671a" stroke="#484848" fill="none" stroke-linecap="square" stroke-width="2"></path><path id="line_65cc8993956b6997" d="M 152 116.0703125 L 134 116.0703125 L 134 214.5 A 4 4 0 0 1 130 218.5 L 120 218.5" p="402161a29e30671a" stroke="#484848" fill="none" stroke-linecap="square" stroke-width="2"></path></g><g transform="translate(0.5,0.5)"></g><g class="svg-summary-con" transform="translate(0.5,0.5)"></g><g class="svg-boundary-con" transform="translate(0.5,0.5)"></g></g><g transform="translate(398, 347.5)" id="sdjakdjak5"><g id="subline_root" transform="translate(0.5, 0.5)"></g><g transform="translate(0.5,0.5)"></g><g class="svg-summary-con" transform="translate(0.5,0.5)"></g><g class="svg-boundary-con" transform="translate(0.5,0.5)"></g></g><g id="root"><rect x="398" y="347.5" rx="12px" ry="12px" width="213" height="57" style="fill: #00A59A; stroke:none;stroke-width:0px;"></rect><g><text text-anchor="start" align="top" anchor="start" font-size="20px" font-weight="bold" fill="rgb(255, 255, 255)" style="font-size:20px;font-family:微软雅黑;color:#fff;font-style:normal;text-align:left;font-weight:bold;"><tspan x="418" y="383"><tspan dx="0">Certd证书管理工具</tspan></tspan></text></g></g><g transform="translate(566.5, 431)"><text id="normal_brand" style="transform:rotate(-30deg);opacity: 0.09; color:#aaa; font-family: Microsoft Yahei;"><tspan font-size="72" dy="0" x="0"></tspan></text></g></svg>